HIERARCHY
ROOT Hips
{
	OFFSET 0 0 0
	CHANNELS 6 Xposition Yposition Zposition Yrotation Xrotation Zrotation
	JOINT Spine
	{
		OFFSET -0 8.37147 -2.66841
		CHANNELS 3 Yrotation Xrotation Zrotation
		JOINT Spine1
		{
			OFFSET -0 8.81736 0
			CHANNELS 3 Yrotation Xrotation Zrotation
			JOINT Spine2
			{
				OFFSET -0 8.81736 0
				CHANNELS 3 Yrotation Xrotation Zrotation
				JOINT Spine3
				{
					OFFSET -0 8.81736 0
					CHANNELS 3 Yrotation Xrotation Zrotation
					JOINT Neck
					{
						OFFSET -0 20.2165 3.66841
						CHANNELS 3 Yrotation Xrotation Zrotation
						JOINT Head
						{
							OFFSET -0 10.4643 0
							CHANNELS 3 Yrotation Xrotation Zrotation
							End Site
							{
								OFFSET 0 15 0
							}
						}
					}
					JOINT LeftShoulder
					{
						OFFSET 1.74406 7.24 3.48811
						CHANNELS 3 Yrotation Xrotation Zrotation
						JOINT LeftArm
						{
							OFFSET 15.166 0 0
							CHANNELS 3 Yrotation Xrotation Zrotation
							JOINT LeftForeArm
							{
								OFFSET 25.1836 0 0
								CHANNELS 3 Yrotation Xrotation Zrotation
								JOINT LeftHand
								{
									OFFSET 23.8595 0 0
									CHANNELS 3 Yrotation Xrotation Zrotation
									End Site
									{
										OFFSET 15 0 0
									}
								}
							}
						}
					}
					JOINT RightShoulder
					{
						OFFSET -1.74406 7.24 3.48811
						CHANNELS 3 Yrotation Xrotation Zrotation
						JOINT RightArm
						{
							OFFSET -15.166 0 0
							CHANNELS 3 Yrotation Xrotation Zrotation
							JOINT RightForeArm
							{
								OFFSET -25.1836 0 0
								CHANNELS 3 Yrotation Xrotation Zrotation
								JOINT RightHand
								{
									OFFSET -23.8595 0 0
									CHANNELS 3 Yrotation Xrotation Zrotation
									End Site
									{
										OFFSET -15 0 0
									}
								}
							}
						}
					}
				}
			}
		}
	}
	JOINT LeftUpLeg
	{
		OFFSET 10.4643 -3.48811 2
		CHANNELS 3 Yrotation Xrotation Zrotation
		JOINT LeftLeg
		{
			OFFSET -0 -38.892 2.44168
			CHANNELS 3 Yrotation Xrotation Zrotation
			JOINT LeftFoot
			{
				OFFSET -0 -41.3956 -2.44168
				CHANNELS 3 Yrotation Xrotation Zrotation
				JOINT LeftToeBase
				{
					OFFSET -0 -6.7338 15.6965
					CHANNELS 3 Yrotation Xrotation Zrotation
					End Site
					{
						OFFSET 0 0 5
					}
				}
			}
		}
	}
	JOINT RightUpLeg
	{
		OFFSET -10.4643 -3.48811 2
		CHANNELS 3 Yrotation Xrotation Zrotation
		JOINT RightLeg
		{
			OFFSET -0 -38.892 2.44168
			CHANNELS 3 Yrotation Xrotation Zrotation
			JOINT RightFoot
			{
				OFFSET -0 -41.3956 -2.44168
				CHANNELS 3 Yrotation Xrotation Zrotation
				JOINT RightToeBase
				{
					OFFSET -0 -6.7338 15.6965
					CHANNELS 3 Yrotation Xrotation Zrotation
					End Site
					{
						OFFSET 0 0 5
					}
				}
			}
		}
	}
}
MOTION
Frames: 16
Frame Time: 0.00833333
-76.509113 85.433649 -33.474844 -80.511238 -2.922243 6.994566 -10.812376 3.292200 -4.291441 -10.670103 3.036887 -0.434638 -7.334777 2.948518 3.022254 -5.418963 2.719024 3.517008 6.028543 2.335652 4.186926 2.368736 0.219203 -8.426564 2.375663 3.286073 11.046771 30.933300 13.561616 -27.066886 -8.031710 -1.901364 -5.733876 19.552938 9.187236 -8.091098 -16.278293 -3.995458 -7.782244 40.631267 -29.489634 -27.383591 73.243771 7.933440 -44.307564 -6.113445 16.842441 21.572349 8.534557 6.318618 20.029397 0.000000 9.289599 0.000000 5.265758 2.415834 -19.792132 0.000000 -1.649605 0.000000 21.831852 -20.308030 -12.980293 0.000000 50.165709 0.000000 0.819264 -18.729478 5.521017 0.000000 -9.848958 0.000000
-76.662695 85.438080 -34.080756 -78.563037 -3.259187 6.583861 -10.458665 3.149374 -4.123406 -10.315519 2.877001 -0.349669 -7.230210 2.738694 2.939285 -5.285404 2.682583 3.352297 7.700877 2.102101 4.640988 3.052845 0.583293 -9.118294 2.622721 3.186106 11.248011 27.972004 11.458826 -26.412118 -8.950912 -1.920221 -5.511190 18.978985 9.514318 -6.927560 -14.992797 -4.321667 -7.221731 41.931377 -31.135599 -27.870773 75.130617 9.186614 -45.721134 -6.248800 17.033195 20.025118 7.490573 4.965455 20.864537 0.000000 10.434849 0.000000 3.852594 3.238190 -19.557761 0.000000 -2.457379 0.000000 20.130951 -19.997270 -11.952557 0.000000 50.078518 0.000000 0.007093 -18.913114 5.255631 0.000000 -9.694243 0.000000
-76.810431 85.483514 -34.705710 -76.489777 -3.712368 6.123828 -10.104239 3.056046 -3.955508 -9.959605 2.774155 -0.308980 -6.996803 2.644819 2.887146 -5.030445 2.463156 3.103401 9.549061 1.963180 5.173223 3.798351 0.974829 -9.742669 2.624199 3.199513 11.420965 24.895119 9.240886 -25.597236 -10.143230 -2.233417 -5.213637 18.045192 10.549511 -5.374908 -13.522137 -3.986499 -6.417857 43.048708 -32.924845 -29.154335 77.205558 10.432886 -46.875635 -6.264574 17.476607 18.553221 6.450256 3.526284 21.751759 0.000000 11.652909 0.000000 2.248622 4.342779 -19.363723 0.000000 -3.231213 0.000000 18.357499 -19.469678 -10.833125 0.000000 49.814047 0.000000 -0.889503 -19.012725 5.083469 0.000000 -9.575640 0.000000
-76.988855 85.555853 -35.398303 -74.097514 -4.289136 5.553553 -9.785490 3.089533 -3.786251 -9.630102 2.587220 -0.331080 -6.710248 2.561019 2.658577 -4.742794 2.287518 3.058790 11.443592 2.126452 5.911072 4.542948 1.197948 -10.575660 2.685417 3.431334 11.633935 21.132072 7.137479 -24.813840 -11.739879 -2.889507 -4.727054 17.188848 11.032574 -3.171439 -11.611228 -3.672839 -5.976934 43.378865 -35.673555 -30.163531 81.358032 10.916794 -46.486908 -6.606996 19.440833 16.787217 5.204486 1.863229 22.802096 0.000000 13.160287 0.000000 0.241208 5.717904 -19.154096 0.000000 -4.355241 0.000000 16.344166 -18.716745 -9.520650 0.000000 49.394278 0.000000 -1.972304 -19.060238 4.912397 0.000000 -9.492504 0.000000
-77.134833 85.682202 -36.104642 -71.490611 -4.818437 4.981619 -9.481511 3.144036 -3.606503 -9.298287 2.387943 -0.355369 -6.445201 2.318573 2.651844 -4.525792 2.214524 2.536674 13.425590 2.283051 6.812859 5.351153 1.203314 -11.492560 2.704392 3.538078 11.645320 17.221075 5.101620 -23.321539 -13.688651 -3.446623 -4.248155 16.196375 11.145210 -1.128659 -9.754580 -4.268457 -5.409306 43.302404 -37.434270 -29.988315 85.260690 11.827204 -46.248848 -6.659937 20.809958 15.350920 3.952094 -0.184984 23.795723 0.000000 14.804098 0.000000 -2.040369 7.365114 -18.774098 0.000000 -5.183742 0.000000 14.211039 -17.904258 -8.281715 0.000000 48.798887 0.000000 -3.085281 -18.986732 4.780764 0.000000 -9.369300 0.000000
-77.326697 85.830609 -36.806491 -68.807143 -5.485081 4.371124 -9.111900 3.090567 -3.421758 -8.947386 2.396432 -0.449026 -6.102913 2.185421 2.266417 -4.193971 2.275521 2.561548 15.392504 2.098256 7.286366 6.122201 1.748276 -12.022372 3.111680 3.964774 11.528997 12.202305 2.794538 -21.841751 -15.612699 -4.594445 -3.588075 15.136577 11.412880 1.153253 -7.820135 -4.681117 -5.543240 42.292189 -39.812339 -29.243283 89.336926 13.041683 -45.703232 -6.621350 22.554063 12.938098 2.774179 -2.310824 24.812238 0.000000 16.573920 0.000000 -4.390664 9.367546 -18.735636 0.000000 -5.978120 0.000000 12.085004 -16.788638 -6.986392 0.000000 48.029486 0.000000 -4.321981 -18.912258 4.673859 0.000000 -9.331728 0.000000
-77.545129 86.019977 -37.523819 -65.930106 -6.206713 3.710333 -8.690688 3.092239 -3.133424 -8.535133 2.414348 -0.531593 -5.658252 2.154705 1.639037 -3.783655 2.182125 2.559748 17.348168 2.041543 8.277689 6.886150 2.073980 -12.991891 3.297038 4.439272 11.526793 6.791800 0.605696 -20.128247 -17.904087 -5.766378 -2.548768 14.411616 11.744540 3.294123 -5.864403 -4.873382 -5.304269 40.449508 -41.713850 -28.606774 93.386061 14.056640 -45.287738 -6.512701 23.290661 10.393458 1.733433 -4.769069 25.727884 0.000000 18.537127 0.000000 -6.689437 11.823128 -18.401814 0.000000 -6.837736 0.000000 9.785653 -15.478014 -5.694180 0.000000 47.069536 0.000000 -5.534870 -18.758229 4.592895 0.000000 -9.250816 0.000000
-77.738806 86.262079 -38.233652 -62.856125 -6.845400 3.130296 -8.315483 3.097323 -2.809079 -8.173675 2.438749 -0.692155 -5.008296 2.040144 0.883318 -3.159104 2.075492 2.578615 18.884195 2.062784 9.455920 7.493632 2.127420 -14.460543 3.014331 4.923339 11.659156 1.175684 -1.562715 -18.380484 -19.788753 -6.478232 -1.183434 12.504082 13.164199 5.233090 -4.685603 -4.909559 -5.075597 38.786377 -43.568966 -27.584566 97.529770 15.072318 -44.829923 -6.367849 24.882346 7.625167 0.591947 -7.477742 26.326706 0.000000 20.433548 0.000000 -8.517433 14.787761 -18.201621 0.000000 -6.653578 0.000000 7.351351 -14.134668 -4.630667 0.000000 45.960806 0.000000 -6.688025 -18.516661 4.587124 0.000000 -9.159882 0.000000
-77.939221 86.534143 -38.951471 -59.657638 -7.457783 2.567628 -8.018202 3.268779 -2.678091 -7.818093 2.338441 -0.859674 -4.110579 1.905402 0.505360 -2.287237 1.967473 2.458290 20.127038 2.020915 10.499596 7.952987 2.364818 -15.754489 2.328501 5.537800 11.581642 -4.810391 -3.476279 -16.199164 -21.890230 -7.033773 0.410579 11.580298 13.727175 7.053120 -4.296284 -4.652055 -4.832518 37.384609 -45.248009 -26.521815 101.482489 15.998520 -44.390271 -6.078718 26.832217 5.158388 -0.613599 -10.459228 26.718223 0.000000 22.535763 0.000000 -9.901482 18.052714 -17.835191 0.000000 -6.059482 0.000000 4.748054 -12.721962 -3.698641 0.000000 44.719578 0.000000 -7.698221 -18.206658 4.539386 0.000000 -9.082839 0.000000
-78.128857 86.834967 -39.628580 -56.368847 -8.102122 2.071412 -7.596560 3.510442 -2.567786 -7.330732 2.656914 -0.993357 -3.405346 1.920686 0.132862 -1.563905 1.442755 2.560941 21.383077 1.568067 10.714439 8.398963 3.106947 -16.495738 1.042047 5.399909 11.242579 -9.804488 -4.876383 -14.118337 -24.370933 -6.597242 1.953063 9.957761 14.059570 8.684788 -4.031179 -4.752022 -4.889923 35.989736 -46.728314 -25.192743 105.193447 16.903438 -43.879694 -5.751453 28.891851 3.720743 -1.931555 -13.435766 26.795180 0.000000 24.573906 0.000000 -10.895972 21.681136 -16.975399 0.000000 -5.179954 0.000000 2.031263 -11.169850 -2.993592 0.000000 43.354381 0.000000 -8.571256 -17.859154 4.542028 0.000000 -9.017436 0.000000
-78.354663 87.159454 -40.244904 -53.015006 -8.686982 1.627233 -7.199396 3.721572 -2.540512 -6.879962 2.697269 -1.106824 -2.675959 2.097762 -0.175272 -0.805148 1.322713 2.759519 22.459328 0.943598 10.295540 8.842525 3.766594 -16.683483 -0.871201 4.670523 10.705069 -13.825241 -6.230606 -12.023086 -27.226194 -5.772222 2.834954 8.520260 14.832260 10.311771 -3.715285 -5.219657 -5.241692 34.539251 -48.112790 -23.645284 108.933229 17.758971 -43.383657 -5.486423 30.496340 4.447339 -3.053540 -16.511717 26.498023 0.000000 26.482045 0.000000 -11.375121 25.329020 -15.420257 0.000000 -3.351192 0.000000 -0.791574 -9.563702 -2.497289 0.000000 41.882185 0.000000 -9.300193 -17.477147 4.650835 0.000000 -9.022939 0.000000
-78.561090 87.482806 -40.808401 -49.684053 -9.326370 1.197516 -6.685799 4.100372 -2.392296 -6.283506 2.977679 -1.142379 -1.898253 1.963787 -0.346784 -0.042415 1.118859 2.446305 23.288353 0.498573 10.230562 9.155001 4.326436 -17.221324 -2.483707 4.670157 10.620243 -18.708601 -8.520282 -9.993408 -29.502958 -4.276592 3.533132 6.639688 15.662917 12.229503 -3.596659 -5.405483 -5.397814 33.314247 -49.665935 -22.285712 112.257963 18.619609 -42.741565 -4.963957 31.892056 5.803966 -3.904295 -19.489594 25.824684 0.000000 28.345910 0.000000 -10.877235 28.624762 -12.759939 0.000000 -0.530898 0.000000 -3.678707 -7.866990 -2.177639 0.000000 40.373756 0.000000 -9.844472 -17.111822 4.682269 0.000000 -8.862979 0.000000
-78.751385 87.802783 -41.313461 -46.398880 -9.911369 0.877493 -6.043332 4.390437 -2.163322 -5.597635 3.171332 -1.111495 -1.564570 2.115015 -0.526881 0.208960 1.172064 1.819461 24.513610 -0.184340 9.363597 9.747815 4.811451 -16.670413 -4.031587 3.762665 10.587226 -22.392257 -10.764002 -8.150728 -32.328990 -2.674809 3.574651 5.215200 16.317636 14.038996 -3.218927 -5.698667 -5.575593 32.962372 -51.102171 -20.932874 115.579306 19.384766 -42.183082 -4.766287 33.806617 8.363838 -4.315909 -22.330496 24.696942 0.000000 29.742129 0.000000 -10.087859 31.483014 -10.148521 0.000000 0.472111 0.000000 -6.494754 -6.263622 -2.106849 0.000000 38.915748 0.000000 -10.336666 -16.669056 4.851727 0.000000 -8.929939 0.000000
-78.936041 88.107178 -41.772028 -43.271608 -10.383181 0.570743 -5.237028 4.550896 -1.829781 -4.756045 3.380015 -0.980693 -1.419296 2.170334 -0.811250 0.227405 1.326335 1.081529 25.882810 -0.579270 8.816453 10.341752 5.276380 -16.555755 -5.300462 3.148361 10.606667 -26.193539 -12.389037 -6.223843 -35.498510 -2.006046 3.987738 3.954120 16.866577 14.973238 -2.760669 -5.210367 -5.567377 33.291659 -52.440582 -20.154511 118.198682 19.983815 -41.701801 -4.523697 35.790151 9.566591 -4.561030 -25.009900 23.431932 0.000000 31.220229 0.000000 -9.568450 31.974094 -8.979563 0.000000 0.868735 0.000000 -9.264540 -4.789841 -2.136220 0.000000 37.461097 0.000000 -10.684134 -16.251425 5.001700 0.000000 -8.897704 0.000000
-79.103485 88.411658 -42.172922 -40.297999 -10.804469 0.387004 -4.429963 4.774040 -1.491396 -3.950714 3.452366 -0.934086 -1.259688 2.259965 -1.039529 0.200684 1.475574 0.342390 27.302547 -0.598150 8.218505 11.010101 5.195195 -16.395961 -6.169779 2.714792 10.547008 -30.479774 -13.975093 -4.431603 -38.158899 -0.851393 4.592943 2.077320 17.032041 16.374451 -2.113383 -4.828564 -5.755867 33.513355 -53.825185 -18.883749 119.943891 20.578958 -41.003983 -4.058197 36.640064 10.125005 -4.696000 -27.522323 21.976327 0.000000 33.139034 0.000000 -9.012308 29.739342 -9.479699 0.000000 1.207383 0.000000 -11.837818 -3.431077 -2.361504 0.000000 36.073446 0.000000 -10.970288 -15.838158 5.187128 0.000000 -8.865888 0.000000
-79.277563 88.731799 -42.547797 -37.556794 -11.170183 0.314195 -3.370296 4.836607 -1.124126 -2.891415 3.683134 -0.850434 -1.217297 2.410378 -1.302430 -0.089372 1.612245 -0.638436 28.637206 -0.716145 7.915153 11.635051 5.172786 -16.299921 -6.740720 2.334788 10.718159 -35.155716 -15.085862 -2.829359 -40.767371 -0.746915 5.756316 -0.145928 17.232583 17.274163 -1.562387 -4.037975 -5.474495 34.479524 -55.000169 -18.247901 120.758606 20.925077 -40.535732 -3.538970 36.825342 9.431537 -4.353332 -29.963649 20.207020 0.000000 35.168079 0.000000 -8.600705 26.710387 -10.935171 0.000000 0.551143 0.000000 -14.149168 -2.168580 -2.686655 0.000000 34.652349 0.000000 -11.286307 -15.336336 5.399623 0.000000 -9.004706 0.000000
